<?xml version="1.0" encoding="UTF-8" standalone="no"?>
<!DOCTYPE svg PUBLIC "-//W3C//DTD SVG 20010904//EN"
        "http://www.w3.org/TR/2001/REC-SVG-20010904/DTD/svg10.dtd">

<svg xmlns="http://www.w3.org/2000/svg"
     width="3.6in" height="3.6in"
     viewBox="0 0 1080 1080">
  <path id="top"
        fill="black" stroke="none" stroke-width="1"
        d="M 50.00,50.00
           C 50.00,50.00 1030.00,50.00 1030.00,50.00
             1030.00,50.00 1030.00,1030.00 1030.00,1030.00
             1030.00,1030.00 50.00,1030.00 50.00,1030.00
             50.00,1030.00 50.00,50.00 50.00,50.00 Z
           M 930.00,150.00
           C 930.00,150.00 151.00,150.00 151.00,150.00
             151.00,150.00 151.00,930.00 151.00,930.00
             151.00,930.00 258.00,930.00 258.00,930.00
             258.00,930.00 258.00,766.00 258.00,766.00
             258.00,766.00 258.00,683.00 258.00,683.00
             258.00,683.00 259.00,668.00 259.00,668.00
             259.00,668.00 259.00,625.00 259.00,625.00
             259.00,625.00 240.00,626.00 240.00,626.00
             240.00,626.00 218.00,626.00 218.00,626.00
             214.39,626.00 203.98,626.60 201.31,624.83
             198.53,622.97 199.01,618.94 199.00,616.00
             199.00,616.00 199.00,582.00 199.00,582.00
             199.01,579.27 198.74,575.89 200.31,573.53
             202.28,570.58 209.66,567.42 213.00,565.75
             213.00,565.75 242.00,551.58 242.00,551.58
             245.33,550.12 256.03,545.62 257.43,542.61
             258.14,541.08 258.00,537.74 258.00,536.00
             258.00,536.00 258.00,505.00 258.00,505.00
             258.00,505.00 258.91,493.00 258.91,493.00
             261.17,462.11 270.55,433.03 295.00,412.44
             310.11,399.71 327.03,393.67 346.00,389.58
             382.18,381.12 424.71,382.69 461.00,389.58
             461.00,389.58 487.00,396.42 487.00,396.42
             487.00,396.42 499.00,400.00 499.00,400.00
             499.00,400.00 492.69,420.00 492.69,420.00
             492.69,420.00 488.63,431.96 488.63,431.96
             488.63,431.96 485.09,439.09 485.09,439.09
             485.09,439.09 471.00,480.00 471.00,480.00
             471.00,480.00 457.00,476.13 457.00,476.13
             437.45,471.24 428.25,469.77 408.00,470.00
             396.48,470.14 384.89,473.74 377.52,483.00
             364.33,499.56 366.00,523.91 366.00,544.00
             366.00,544.00 415.00,544.00 415.00,544.00
             415.00,544.00 430.00,543.00 430.00,543.00
             430.00,543.00 454.00,543.00 454.00,543.00
             454.00,543.00 460.40,544.60 460.40,544.60
             460.40,544.60 462.00,553.00 462.00,553.00
             462.00,553.00 462.00,584.00 462.00,584.00
             462.00,584.00 461.00,600.00 461.00,600.00
             461.00,600.00 461.00,625.00 461.00,625.00
             461.00,625.00 389.00,625.00 389.00,625.00
             389.00,625.00 373.00,625.00 373.00,625.00
             373.00,625.00 367.02,626.60 367.02,626.60
             367.02,626.60 366.00,634.00 366.00,634.00
             366.00,634.00 366.00,930.00 366.00,930.00
             366.00,930.00 495.00,930.00 495.00,930.00
             495.00,930.00 495.00,873.00 495.00,873.00
             495.00,870.91 494.88,867.94 495.60,866.00
             497.16,861.75 511.01,848.99 515.00,845.00
             515.00,845.00 551.99,808.00 551.99,808.00
             551.99,808.00 573.00,786.00 573.00,786.00
             573.00,786.00 626.96,732.00 626.96,732.00
             626.96,732.00 668.09,688.00 668.09,688.00
             690.16,664.27 718.27,634.06 728.92,603.00
             735.45,583.96 733.31,575.65 734.49,557.00
             734.81,551.93 732.99,544.75 731.19,540.00
             722.45,517.05 700.66,506.04 677.00,506.00
             677.00,506.00 662.00,506.00 662.00,506.00
             629.51,506.38 587.61,530.66 563.01,550.67
             563.01,550.67 553.00,560.00 553.00,560.00
             553.00,560.00 528.29,530.00 528.29,530.00
             528.29,530.00 521.45,520.00 521.45,520.00
             521.45,520.00 512.25,509.00 512.25,509.00
             512.25,509.00 500.42,495.00 500.42,495.00
             499.22,493.52 496.98,491.04 497.03,489.04
             497.09,486.51 501.19,483.56 503.00,482.00
             503.00,482.00 521.00,467.87 521.00,467.87
             521.00,467.87 541.96,452.96 541.96,452.96
             541.96,452.96 550.04,446.46 550.04,446.46
             564.30,437.15 588.48,427.56 605.00,422.86
             635.06,414.31 662.12,413.64 693.00,414.00
             693.00,414.00 712.00,415.87 712.00,415.87
             756.25,422.01 798.29,442.71 823.30,481.00
             826.49,485.87 834.71,505.12 836.67,511.00
             840.72,523.16 843.85,539.18 844.00,552.00
             844.33,580.43 838.23,609.39 825.74,635.00
             810.45,666.36 787.93,692.03 764.04,717.00
             764.04,717.00 755.96,726.00 755.96,726.00
             755.96,726.00 731.00,750.04 731.00,750.04
             731.00,750.04 716.00,764.91 716.00,764.91
             716.00,764.91 679.00,799.09 679.00,799.09
             679.00,799.09 654.00,822.83 654.00,822.83
             654.00,822.83 640.00,835.91 640.00,835.91
             637.84,837.92 634.35,840.50 633.02,843.04
             631.89,845.21 632.03,847.63 632.00,850.00
             632.00,850.00 725.00,850.00 725.00,850.00
             725.00,850.00 740.00,849.00 740.00,849.00
             740.00,849.00 859.00,849.00 859.00,849.00
             859.00,849.00 859.00,890.00 859.00,890.00
             859.00,890.00 858.00,906.00 858.00,906.00
             858.00,906.00 858.00,930.00 858.00,930.00
             858.00,930.00 930.00,930.00 930.00,930.00
             930.00,930.00 930.00,150.00 930.00,150.00 Z
           M 827.00,487.00
           C 827.00,487.00 826.00,487.00 826.00,487.00
             826.00,487.00 827.00,488.00 827.00,488.00
             827.00,488.00 827.00,487.00 827.00,487.00 Z" />
  <path id="shadow"
        fill="#f5108f" stroke="none" stroke-width="1"
        d="M 1030.00,100.00
           C 1030.00,100.00 1080.00,100.00 1080.00,100.00
             1080.00,100.00 1080.00,1080.00 1080.00,1080.00
             1080.00,1080.00 100.00,1080.00 100.00,1080.00
             100.00,1080.00 100.00,1030.00 100.00,1030.00
             100.00,1030.00 1030.00,1030.00 1030.00,1030.00
             1030.00,1030.00 1030.00,100.00 1030.00,100.00 Z
           M 151.00,150.00
           C 151.00,150.00 930.00,150.00 930.00,150.00
             930.00,150.00 930.00,200.00 930.00,200.00
             930.00,200.00 201.00,200.00 201.00,200.00
             201.00,200.00 201.00,444.00 201.00,444.00
             201.00,444.00 201.00,566.00 201.00,566.00
             201.00,566.00 198.00,582.00 198.00,582.00
             198.00,582.00 198.00,626.00 198.00,626.00
             198.00,626.00 201.00,626.00 201.00,626.00
             201.00,626.00 201.00,930.00 201.00,930.00
             201.00,930.00 151.00,930.00 151.00,930.00
             151.00,930.00 151.00,150.00 151.00,150.00 Z
           M 472.00,481.00
           C 473.21,473.16 479.50,457.47 482.33,449.00
             483.23,446.32 485.56,438.51 487.70,437.01
             489.94,435.42 499.12,437.45 502.00,438.00
             502.00,438.00 532.00,444.71 532.00,444.71
             536.77,446.07 541.18,446.71 545.00,450.00
             545.00,450.00 515.00,471.21 515.00,471.21
             515.00,471.21 494.00,487.00 494.00,487.00
             496.94,493.90 509.80,507.49 515.25,514.00
             520.64,520.45 524.54,522.49 522.00,531.00
             522.00,531.00 507.00,527.37 507.00,527.37
             496.75,524.78 479.34,521.12 469.00,521.00
             457.77,520.87 446.85,520.64 437.00,527.11
             433.51,529.40 430.09,532.71 427.53,536.00
             425.85,538.15 424.08,541.64 421.79,542.98
             419.69,544.21 416.39,544.00 414.00,544.00
             414.00,544.00 367.00,544.00 367.00,544.00
             367.00,526.96 365.45,506.53 373.37,491.00
             384.12,469.94 401.68,470.77 422.00,471.00
             435.71,471.16 458.54,477.07 472.00,481.00 Z
           M 828.00,488.00
           C 841.72,494.70 857.40,509.07 866.79,521.00
             885.09,544.23 894.95,573.45 895.00,603.00
             895.06,638.39 887.42,668.03 870.14,699.00
             852.20,731.14 826.79,757.21 801.00,783.00
             801.00,783.00 750.00,832.17 750.00,832.17
             745.60,836.15 736.09,846.59 731.00,848.41
             729.01,849.12 726.13,849.00 724.00,849.00
             724.00,849.00 633.00,849.00 633.00,849.00
             633.16,847.07 633.11,845.83 634.02,844.00
             636.32,839.42 651.29,826.68 656.00,822.00
             656.00,822.00 682.00,797.91 682.00,797.91
             682.00,797.91 729.00,753.83 729.00,753.83
             729.00,753.83 771.17,711.00 771.17,711.00
             771.17,711.00 779.83,702.00 779.83,702.00
             797.12,682.89 815.49,658.24 826.74,635.00
             837.92,611.92 842.35,591.34 844.09,566.00
             844.09,566.00 844.99,557.00 844.99,557.00
             845.10,552.12 844.60,550.50 844.17,546.00
             842.86,532.29 842.04,523.29 837.31,510.00
             837.31,510.00 828.00,488.00 828.00,488.00 Z
           M 558.00,556.00
           C 588.40,529.88 635.59,502.89 677.00,506.83
             687.57,507.84 694.96,508.29 705.00,512.90
             723.11,521.22 732.42,537.66 734.00,557.00
             734.00,557.00 716.00,557.00 716.00,557.00
             690.90,557.04 665.11,568.71 644.00,581.45
             644.00,581.45 618.00,599.15 618.00,599.15
             612.91,602.91 608.54,606.82 603.00,610.00
             603.00,610.00 574.92,577.00 574.92,577.00
             574.92,577.00 558.00,556.00 558.00,556.00 Z
           M 461.00,626.00
           C 461.00,626.00 461.00,602.00 461.00,602.00
             461.00,602.00 462.02,594.60 462.02,594.60
             462.02,594.60 470.00,593.00 470.00,593.00
             470.00,593.00 499.00,593.00 499.00,593.00
             499.00,593.00 510.40,594.02 510.40,594.02
             510.40,594.02 512.00,602.00 512.00,602.00
             512.00,602.00 512.00,676.00 512.00,676.00
             512.00,676.00 417.00,676.00 417.00,676.00
             417.00,676.00 417.00,930.00 417.00,930.00
             417.00,930.00 367.00,930.00 367.00,930.00
             367.00,930.00 367.00,626.00 367.00,626.00
             367.00,626.00 461.00,626.00 461.00,626.00 Z
           M 248.00,626.00
           C 248.00,626.00 258.00,626.00 258.00,626.00
             258.00,626.00 258.00,676.00 258.00,676.00
             258.00,676.00 248.00,676.00 248.00,676.00
             248.00,676.00 248.00,626.00 248.00,626.00 Z
           M 859.00,899.00
           C 859.00,899.00 909.00,899.00 909.00,899.00
             909.00,899.00 909.00,930.00 909.00,930.00
             909.00,930.00 859.00,930.00 859.00,930.00
             859.00,930.00 859.00,899.00 859.00,899.00 Z" />
</svg>
